<svg width="64" height="64" viewBox="0 0 64 64" fill="none" xmlns="http://www.w3.org/2000/svg">
<g id="sun">
<g id="Frame 5">
<path id="Vector" d="M43.4885 35.4588L46.7578 32.6584L53.6252 38.541C53.9629 38.8304 53.7832 39.3836 53.3399 39.4192L44.3263 40.1418L43.3275 35.9546C43.284 35.7722 43.3461 35.5808 43.4885 35.4588ZM39.2614 41.551L43.5523 41.207L45.6504 50.0028C45.7536 50.4354 45.283 50.7773 44.9034 50.5455L37.1865 45.832L38.8397 41.8574C38.9117 41.6843 39.0745 41.566 39.2614 41.551ZM32.2606 43.9951L35.9343 46.2389L32.4617 54.5881C32.2909 54.9987 31.7091 54.9987 31.5383 54.5881L28.0657 46.2389L31.7394 43.9951C31.8994 43.8973 32.1006 43.8973 32.2606 43.9951ZM25.1603 41.8574L26.8135 45.832L19.0966 50.5455C18.717 50.7773 18.2464 50.4354 18.3496 50.0028L20.4477 41.207L24.7386 41.551C24.9255 41.566 25.0883 41.6843 25.1603 41.8574ZM20.6725 35.9546L19.6737 40.1418L10.6601 39.4192C10.2168 39.3836 10.0371 38.8304 10.3748 38.541L17.2422 32.6584L20.5115 35.4588C20.6539 35.5808 20.716 35.7722 20.6725 35.9546ZM20.5115 28.5412L17.2422 31.3416L10.3748 25.459C10.0371 25.1696 10.2168 24.6164 10.6601 24.5808L19.6737 23.8582L20.6725 28.0454C20.716 28.2278 20.6539 28.4192 20.5115 28.5412ZM24.7386 22.449L20.4477 22.793L18.3496 13.9972C18.2464 13.5646 18.717 13.2227 19.0966 13.4545L26.8135 18.168L25.1603 22.1426C25.0883 22.3157 24.9255 22.434 24.7386 22.449ZM31.7394 20.0049L28.0657 17.7611L31.5383 9.41194C31.7091 9.0013 32.2909 9.0013 32.4617 9.41194L35.9343 17.7611L32.2606 20.0049C32.1006 20.1026 31.8994 20.1026 31.7394 20.0049ZM37.1865 18.168L44.9034 13.4545C45.283 13.2227 45.7536 13.5646 45.6504 13.9972L43.5523 22.793L39.2614 22.449C39.0745 22.434 38.9117 22.3157 38.8397 22.1426L37.1865 18.168ZM43.3275 28.0454L44.3263 23.8582L53.3399 24.5808C53.7832 24.6164 53.9629 25.1696 53.6252 25.459L46.7578 31.3416L43.4885 28.5412C43.3461 28.4192 43.284 28.2278 43.3275 28.0454Z" fill="#FFE81D" stroke="black"/>
</g>
</g>
</svg>
